<svg width="278" height="80" xmlns="http://www.w3.org/2000/svg" xmlns:xlink="http://www.w3.org/1999/xlink" xml:space="preserve" overflow="hidden"><defs><clipPath id="clip0"><rect x="56" y="44" width="278" height="80"/></clipPath><clipPath id="clip1"><rect x="56" y="44" width="278" height="80"/></clipPath><clipPath id="clip2"><rect x="57" y="44" width="277" height="79"/></clipPath><clipPath id="clip3"><rect x="57" y="44" width="277" height="79"/></clipPath><linearGradient x1="28.9242" y1="11.2475" x2="28.9242" y2="76.1276" gradientUnits="userSpaceOnUse" spreadMethod="pad" id="fill4"><stop offset="0" stop-color="#7FE2F7" stop-opacity="1"/><stop offset="0.22" stop-color="#7CDFF6" stop-opacity="1"/><stop offset="0.4" stop-color="#72D6F1" stop-opacity="1"/><stop offset="0.56" stop-color="#62C7EA" stop-opacity="1"/><stop offset="0.7" stop-color="#4AB2DF" stop-opacity="1"/><stop offset="0.84" stop-color="#2C97D2" stop-opacity="1"/><stop offset="0.97" stop-color="#0875C2" stop-opacity="1"/><stop offset="1" stop-color="#006EBE" stop-opacity="1"/></linearGradient><linearGradient x1="28.2126" y1="2.84152" x2="28.2126" y2="70.1039" gradientUnits="userSpaceOnUse" spreadMethod="pad" id="fill5"><stop offset="0" stop-color="#7FE2F7" stop-opacity="1"/><stop offset="0.22" stop-color="#7CDFF6" stop-opacity="1"/><stop offset="0.4" stop-color="#72D6F1" stop-opacity="1"/><stop offset="0.56" stop-color="#62C7EA" stop-opacity="1"/><stop offset="0.7" stop-color="#4AB2DF" stop-opacity="1"/><stop offset="0.84" stop-color="#2C97D2" stop-opacity="1"/><stop offset="0.97" stop-color="#0875C2" stop-opacity="1"/><stop offset="1" stop-color="#006EBE" stop-opacity="1"/></linearGradient></defs><g clip-path="url(#clip0)" transform="translate(-56 -44)"><g clip-path="url(#clip1)"><g clip-path="url(#clip2)"><g clip-path="url(#clip3)"><g><path d="M70.0321 13.7172 75.5508 13.7172 108.424 55.5388 108.424 13.7172 114.162 13.7172 114.162 65.8997 109.466 65.8997 75.7697 23.1097 75.7697 65.8997 70.0321 65.8997 70.0321 13.7172Z" fill="#006EBE" fill-rule="nonzero" fill-opacity="1" transform="matrix(1.00214 0 0 1 57 44.0133)"/><path d="M143.818 13.3458 149.337 13.3458 173.117 65.8997 166.782 65.8997 160.666 52.1095 132.264 52.1095 126.075 65.8997 120.039 65.8997 143.818 13.3458ZM158.358 46.8163 146.505 20.2044 134.579 46.8163 158.358 46.8163Z" fill="#006EBE" fill-rule="nonzero" fill-opacity="1" transform="matrix(1.00214 0 0 1 57 44.0133)"/><path d="M249.158 13.7172 230.612 56.6598 212.073 13.7172 205.665 13.7172 187.119 56.6598 168.58 13.7172 162.172 13.7172 184.665 66.2777 189.58 66.2777 208.869 21.2126 228.151 66.2777 233.073 66.2777 255.566 13.7172 249.158 13.7172Z" fill="#006EBE" fill-rule="nonzero" fill-opacity="1" transform="matrix(1.00214 0 0 1 57 44.0133)"/><path d="M262.63 13.7172 268.52 13.7172 268.52 65.8997 262.63 65.8997 262.63 13.7172Z" fill="#006EBE" fill-rule="nonzero" fill-opacity="1" transform="matrix(1.00214 0 0 1 57 44.0133)"/><path d="M28.3233 11.2497C37.6825 19.6538 47.3934 30.9035 50.4446 43.3538 52.7197 52.6468 51.6054 61.7009 45.2177 68.7917 35.6528 79.4179 14.3208 78.4893 6.32796 66.1119 24.1046 81.6267 53.0779 71.7036 47.7582 45.9275 45.284 33.9282 36.7207 23.5806 28.3299 15.5678L28.3299 15.5546C20.5758 22.5657 9.90982 34.5252 9.90982 45.1116 9.90982 53.5555 16.7552 60.4075 25.2057 60.4075 33.8685 60.4075 39.1551 55.1541 39.9311 48.3286 41.1981 37.1718 28.3365 25.1062 28.3365 24.6419 21.2259 32.2102 15.402 42.0206 14.6591 52.3748 9.17355 42.392 19.7533 28.6947 28.3299 20.0982 33.3777 25.1526 39.8118 32.6812 42.2527 40.4154 46.1928 52.9055 38.1269 63.5449 25.2057 63.5449 19.8926 63.5516 14.8316 61.2565 11.3359 57.2568 5.93661 51.1013 5.77078 43.314 8.60311 36.0044 12.2977 26.4793 20.8876 17.8828 28.3233 11.2497Z" fill="url(#fill4)" fill-rule="nonzero" transform="matrix(1.00214 0 0 1 57 44.0133)"/><path d="M28.3166 2.84559C16.5429 12.7421 1.03476 26.665 0.0596977 42.5711-0.583711 53.0182 3.98648 62.5234 13.3922 67.2462 25.4047 73.2756 42.0073 70.0188 44.5544 55.2602 37.6228 69.9525 16.7817 70.7285 7.56835 58.3446 5.63812 55.7577 4.29824 52.7861 3.64819 49.6287 2.97825 46.352 3.02468 42.9359 3.74769 39.4668 6.30143 27.1824 18.5594 15.0505 28.31 6.91167 41.5231 18.3935 56.0097 33.9348 54.5438 55.1872 57.071 48.9588 56.8787 42.6573 54.9949 36.661 51.2538 24.748 37.9479 10.5997 28.3166 2.84559L28.3166 2.84559Z" fill="url(#fill5)" fill-rule="nonzero" transform="matrix(1.00214 0 0 1 57 44.0133)"/><path d="M302.017 15.5081 304.041 15.5081 314.786 32.0245 314.945 32.0245 314.945 15.5081 316.212 15.5081 316.212 34.2068 314.707 34.2068 303.444 16.8016 303.284 16.8016 303.284 34.2068 302.017 34.2068 302.017 15.5081Z" fill="#006FBF" fill-rule="nonzero" fill-opacity="1" transform="matrix(1.00214 0 0 1 57 44.0133)"/><path d="M331.999 23.9388 331.999 34.2002 330.977 34.2002 330.792 31.6133C329.929 33.444 327.694 34.4655 325.081 34.4655 321.605 34.4655 320.179 32.9333 320.179 30.2336 320.179 26.5191 322.713 25.7098 325.89 25.7098L330.792 25.7098 330.792 24.1179C330.792 21.8295 330.036 20.5095 326.726 20.5095 325.784 20.5095 324.57 20.6156 323.469 20.861L323.469 19.6737C324.543 19.488 325.757 19.3752 326.812 19.3752 331.163 19.3819 331.999 21.3784 331.999 23.9388ZM330.785 29.9484 330.785 26.7976 326.042 26.7976C323.051 26.7976 321.379 27.3349 321.379 30.2469 321.379 32.3495 322.646 33.3445 325.041 33.3445 327.906 33.3379 330.062 32.1572 330.785 29.9484Z" fill="#006FBF" fill-rule="nonzero" fill-opacity="1" transform="matrix(1.00214 0 0 1 57 44.0133)"/><path d="M342.559 33.0725 342.559 34.1803C341.995 34.2864 341.292 34.366 340.675 34.366 338.009 34.366 337.04 33.6894 337.04 29.8688L337.04 20.7615 334.699 20.7615 334.699 19.6538 337.04 19.6538 337.04 16.2046 338.254 16.2046 338.254 19.6538 342.267 19.6538 342.267 20.7615 338.254 20.7615 338.254 29.9152C338.254 32.5286 338.765 33.2583 340.649 33.2583 341.398 33.2583 341.942 33.2052 342.559 33.0725Z" fill="#006FBF" fill-rule="nonzero" fill-opacity="1" transform="matrix(1.00214 0 0 1 57 44.0133)"/><path d="M345.04 15.5347C345.04 14.752 345.225 14.6458 345.875 14.6458 346.466 14.6458 346.685 14.752 346.685 15.5347 346.685 16.3174 346.472 16.4235 345.875 16.4235 345.225 16.4235 345.04 16.3174 345.04 15.5347ZM345.252 19.6538 346.466 19.6538 346.466 34.2002 345.252 34.2002 345.252 19.6538Z" fill="#006FBF" fill-rule="nonzero" fill-opacity="1" transform="matrix(1.00214 0 0 1 57 44.0133)"/><path d="M350.751 26.9303C350.751 21.2458 352.528 19.3885 356.946 19.3885 361.364 19.3885 363.194 21.2458 363.194 26.9303 363.194 32.6149 361.364 34.4721 356.946 34.4721 352.528 34.4721 350.751 32.6149 350.751 26.9303ZM361.927 26.9303C361.927 22.1346 360.767 20.4896 356.946 20.4896 353.119 20.4896 352.018 22.1346 352.018 26.9303 352.018 31.726 353.125 33.371 356.946 33.371 360.793 33.3644 361.927 31.726 361.927 26.9303Z" fill="#006FBF" fill-rule="nonzero" fill-opacity="1" transform="matrix(1.00214 0 0 1 57 44.0133)"/><path d="M378.278 24.0184 378.278 34.2002 377.064 34.2002 377.064 24.7746C377.064 21.73 376.361 20.4896 373.403 20.4896 371.439 20.4896 369.23 21.0534 368.633 23.9919L368.633 34.2002 367.42 34.2002 367.42 19.6538 368.633 19.6538 368.633 22.1611C369.144 20.1115 371.486 19.3885 373.535 19.3885 377.203 19.3819 378.278 21.133 378.278 24.0184Z" fill="#006FBF" fill-rule="nonzero" fill-opacity="1" transform="matrix(1.00214 0 0 1 57 44.0133)"/><path d="M393.985 23.9388 393.985 34.2002 392.964 34.2002 392.778 31.6133C391.916 33.444 389.68 34.4655 387.067 34.4655 383.591 34.4655 382.165 32.9333 382.165 30.2336 382.165 26.5191 384.699 25.7098 387.876 25.7098L392.778 25.7098 392.778 24.1179C392.778 21.8295 392.022 20.5095 388.712 20.5095 387.77 20.5095 386.556 20.6156 385.455 20.861L385.455 19.6737C386.53 19.488 387.743 19.3752 388.798 19.3752 393.149 19.3819 393.985 21.3784 393.985 23.9388ZM392.771 29.9484 392.771 26.7976 388.029 26.7976C385.037 26.7976 383.366 27.3349 383.366 30.2469 383.366 32.3495 384.633 33.3445 387.027 33.3445 389.893 33.3379 392.042 32.1572 392.771 29.9484Z" fill="#006FBF" fill-rule="nonzero" fill-opacity="1" transform="matrix(1.00214 0 0 1 57 44.0133)"/><path d="M399.073 31.7526 399.073 13.7305 400.287 13.7305 400.287 31.4275C400.287 32.9333 400.691 33.3113 401.713 33.3113 402.276 33.3113 402.602 33.2583 403.006 33.1521L403.006 34.2002C402.602 34.3063 402.223 34.3594 401.553 34.3594 400.207 34.366 399.073 33.8751 399.073 31.7526Z" fill="#006FBF" fill-rule="nonzero" fill-opacity="1" transform="matrix(1.00214 0 0 1 57 44.0133)"/><path d="M422.023 27.9253 413.347 27.9253 410.979 34.2002 409.633 34.2002 416.823 15.5015 418.654 15.5015 425.764 34.2002 424.365 34.2002 422.023 27.9253ZM421.625 26.8175 417.877 16.7154 417.606 16.7154 413.778 26.8175 421.625 26.8175Z" fill="#006FBF" fill-rule="nonzero" fill-opacity="1" transform="matrix(1.00214 0 0 1 57 44.0133)"/><path d="M427.927 31.7526 427.927 13.7305 429.14 13.7305 429.14 31.4275C429.14 32.9333 429.545 33.3113 430.567 33.3113 431.13 33.3113 431.455 33.2583 431.86 33.1521L431.86 34.2002C431.455 34.3063 431.077 34.3594 430.407 34.3594 429.054 34.366 427.927 33.8751 427.927 31.7526Z" fill="#006FBF" fill-rule="nonzero" fill-opacity="1" transform="matrix(1.00214 0 0 1 57 44.0133)"/><path d="M434.553 31.7526 434.553 13.7305 435.767 13.7305 435.767 31.4275C435.767 32.9333 436.172 33.3113 437.193 33.3113 437.757 33.3113 438.082 33.2583 438.486 33.1521L438.486 34.2002C438.082 34.3063 437.704 34.3594 437.034 34.3594 435.681 34.366 434.553 33.8751 434.553 31.7526Z" fill="#006FBF" fill-rule="nonzero" fill-opacity="1" transform="matrix(1.00214 0 0 1 57 44.0133)"/><path d="M440.961 15.5347C440.961 14.752 441.146 14.6458 441.796 14.6458 442.387 14.6458 442.606 14.752 442.606 15.5347 442.606 16.3174 442.393 16.4235 441.796 16.4235 441.153 16.4235 440.961 16.3174 440.961 15.5347ZM441.18 19.6538 442.393 19.6538 442.393 34.2002 441.18 34.2002 441.18 19.6538Z" fill="#006FBF" fill-rule="nonzero" fill-opacity="1" transform="matrix(1.00214 0 0 1 57 44.0133)"/><path d="M458.286 23.9388 458.286 34.2002 457.265 34.2002 457.079 31.6133C456.217 33.444 453.981 34.4655 451.368 34.4655 447.892 34.4655 446.466 32.9333 446.466 30.2336 446.466 26.5191 449 25.7098 452.177 25.7098L457.079 25.7098 457.079 24.1179C457.079 21.8295 456.323 20.5095 453.013 20.5095 452.071 20.5095 450.857 20.6156 449.756 20.861L449.756 19.6737C450.831 19.488 452.044 19.3752 453.099 19.3752 457.45 19.3819 458.286 21.3784 458.286 23.9388ZM457.072 29.9484 457.072 26.7976 452.33 26.7976C449.338 26.7976 447.667 27.3349 447.667 30.2469 447.667 32.3495 448.934 33.3445 451.328 33.3445 454.187 33.3379 456.343 32.1572 457.072 29.9484Z" fill="#006FBF" fill-rule="nonzero" fill-opacity="1" transform="matrix(1.00214 0 0 1 57 44.0133)"/><path d="M474.206 24.0184 474.206 34.2002 472.992 34.2002 472.992 24.7746C472.992 21.73 472.289 20.4896 469.33 20.4896 467.367 20.4896 465.151 21.0534 464.561 23.9919L464.561 34.2002 463.347 34.2002 463.347 19.6538 464.561 19.6538 464.561 22.1611C465.072 20.1115 467.413 19.3885 469.463 19.3885 473.124 19.3819 474.206 21.133 474.206 24.0184Z" fill="#006FBF" fill-rule="nonzero" fill-opacity="1" transform="matrix(1.00214 0 0 1 57 44.0133)"/><path d="M478.166 26.9303C478.166 21.2458 479.97 19.3885 484.255 19.3885 485.873 19.3885 487.22 19.6339 487.969 19.8727L487.969 21.0866C486.862 20.6819 485.575 20.4962 484.255 20.4962 480.646 20.4962 479.459 22.0616 479.459 26.9369 479.459 31.7592 480.699 33.3777 484.255 33.3777 485.734 33.3777 486.974 33.0792 488.029 32.6215L488.029 33.8088C487.22 34.1338 485.714 34.4854 484.255 34.4854 479.97 34.4721 478.166 32.6149 478.166 26.9303Z" fill="#006FBF" fill-rule="nonzero" fill-opacity="1" transform="matrix(1.00214 0 0 1 57 44.0133)"/><path d="M502.277 26.7114 492.015 27.4411C492.068 31.726 493.309 33.3644 497.242 33.3644 498.748 33.3644 500.612 33.0394 501.793 32.4756L501.793 33.6364C500.983 34.0144 498.993 34.4721 497.156 34.4721 492.606 34.4721 490.768 32.6414 490.768 26.9303 490.768 21.2192 492.546 19.3885 497.017 19.3885 501.839 19.3885 502.323 22.5923 502.323 25.3118 502.33 25.7165 502.33 26.1476 502.277 26.7114ZM501.169 25.7165C501.169 22.5392 500.738 20.4896 496.964 20.4896 493.189 20.4896 492.062 22.1611 492.009 26.4129L501.169 25.7165Z" fill="#006FBF" fill-rule="nonzero" fill-opacity="1" transform="matrix(1.00214 0 0 1 57 44.0133)"/><path d="M303.583 50.7563 303.583 51.0814 307.437 51.0814 307.437 52.1891 303.583 52.1891 303.583 65.6343 302.369 65.6343 302.369 52.1891 299.835 52.1891 299.835 51.0814 302.369 51.0814 302.369 50.3517C302.369 46.5775 303.901 45.0453 306.488 45.0453 306.999 45.0453 307.808 45.0983 308.292 45.1779L308.292 46.2856C307.808 46.206 307.271 46.153 306.462 46.153 304.412 46.153 303.583 47.2607 303.583 50.7563Z" fill="#006FBF" fill-rule="nonzero" fill-opacity="1" transform="matrix(1.00214 0 0 1 57 44.0133)"/><path d="M309.374 58.3578C309.374 52.6733 311.151 50.816 315.569 50.816 319.986 50.816 321.817 52.6733 321.817 58.3578 321.817 64.0424 319.986 65.8997 315.569 65.8997 311.151 65.8997 309.374 64.0424 309.374 58.3578ZM320.55 58.3578C320.55 53.5621 319.389 51.9171 315.569 51.9171 311.742 51.9171 310.64 53.5621 310.64 58.3578 310.64 63.1536 311.748 64.7986 315.569 64.7986 319.416 64.7919 320.55 63.1536 320.55 58.3578Z" fill="#006FBF" fill-rule="nonzero" fill-opacity="1" transform="matrix(1.00214 0 0 1 57 44.0133)"/><path d="M332.218 50.816 332.165 51.9238 331.84 51.9238C329.956 51.9238 328.092 52.5406 327.236 55.2934L327.236 65.641 326.016 65.641 326.016 51.0814 327.23 51.0814 327.23 53.6948C328.039 51.3003 330.195 50.8094 331.919 50.8094L332.218 50.8094Z" fill="#006FBF" fill-rule="nonzero" fill-opacity="1" transform="matrix(1.00214 0 0 1 57 44.0133)"/><path d="M339.514 46.9357 340.834 46.9357 345.093 64.0955 345.252 64.0955 349.643 49.3899 351.394 49.3899 355.812 64.0955 355.971 64.0955 360.203 46.9357 361.496 46.9357 356.727 65.6277 355.056 65.6277 350.585 50.8625 350.426 50.8625 345.928 65.6277 344.257 65.6277 339.514 46.9357Z" fill="#006FBF" fill-rule="nonzero" fill-opacity="1" transform="matrix(1.00214 0 0 1 57 44.0133)"/><path d="M375.154 55.3663 375.154 65.6277 374.132 65.6277 373.947 63.0408C373.084 64.8715 370.849 65.893 368.236 65.893 364.76 65.893 363.334 64.3608 363.334 61.6611 363.334 57.9466 365.867 57.1374 369.045 57.1374L373.947 57.1374 373.947 55.5454C373.947 53.257 373.19 51.937 369.88 51.937 368.939 51.937 367.725 52.0432 366.624 52.2886L366.624 51.1013C367.698 50.9155 368.912 50.8028 369.967 50.8028 374.318 50.816 375.154 52.806 375.154 55.3663ZM373.94 61.3759 373.94 58.2252 369.197 58.2252C366.206 58.2252 364.534 58.7625 364.534 61.6744 364.534 63.7771 365.801 64.772 368.196 64.772 371.061 64.7654 373.217 63.5847 373.94 61.3759Z" fill="#006FBF" fill-rule="nonzero" fill-opacity="1" transform="matrix(1.00214 0 0 1 57 44.0133)"/><path d="M385.714 64.5001 385.714 65.6012C385.15 65.7073 384.447 65.7869 383.83 65.7869 381.163 65.7869 380.195 65.1103 380.195 61.2897L380.195 52.1891 377.853 52.1891 377.853 51.0814 380.195 51.0814 380.195 47.6322 381.409 47.6322 381.409 51.0814 385.422 51.0814 385.422 52.1891 381.402 52.1891 381.402 61.3494C381.402 63.9628 381.913 64.6924 383.797 64.6924 384.553 64.6858 385.097 64.6327 385.714 64.5001Z" fill="#006FBF" fill-rule="nonzero" fill-opacity="1" transform="matrix(1.00214 0 0 1 57 44.0133)"/><path d="M398.914 58.139 388.652 58.8686C388.705 63.1536 389.946 64.7919 393.879 64.7919 395.385 64.7919 397.249 64.4669 398.429 63.9031L398.429 65.0639C397.62 65.442 395.63 65.8997 393.793 65.8997 389.242 65.8997 387.405 64.0689 387.405 58.3578 387.405 52.6468 389.183 50.816 393.653 50.816 398.476 50.816 398.96 54.0198 398.96 56.7394 398.967 57.144 398.967 57.5751 398.914 58.139ZM397.812 57.144C397.812 53.9667 397.381 51.9171 393.607 51.9171 389.833 51.9171 388.705 53.5887 388.652 57.8405L397.812 57.144Z" fill="#006FBF" fill-rule="nonzero" fill-opacity="1" transform="matrix(1.00214 0 0 1 57 44.0133)"/><path d="M409.42 50.816 409.367 51.9238 409.042 51.9238C407.158 51.9238 405.295 52.5406 404.439 55.2934L404.439 65.641 403.225 65.641 403.225 51.0814 404.439 51.0814 404.439 53.6948C405.248 51.3003 407.404 50.8094 409.128 50.8094L409.42 50.8094Z" fill="#006FBF" fill-rule="nonzero" fill-opacity="1" transform="matrix(1.00214 0 0 1 57 44.0133)"/><path d="M418.687 46.9357 419.954 46.9357 419.954 65.6343 418.687 65.6343 418.687 46.9357Z" fill="#006FBF" fill-rule="nonzero" fill-opacity="1" transform="matrix(1.00214 0 0 1 57 44.0133)"/><path d="M435.846 55.4459 435.846 65.6277 434.633 65.6277 434.633 56.2021C434.633 53.1575 433.93 51.9171 430.971 51.9171 429.008 51.9171 426.792 52.4809 426.202 55.4194L426.202 65.6277 424.988 65.6277 424.988 51.0814 426.202 51.0814 426.202 53.5887C426.713 51.539 429.054 50.816 431.104 50.816 434.765 50.816 435.846 52.5672 435.846 55.4459Z" fill="#006FBF" fill-rule="nonzero" fill-opacity="1" transform="matrix(1.00214 0 0 1 57 44.0133)"/><path d="M451.633 55.4459 451.633 65.6277 450.419 65.6277 450.419 56.2021C450.419 53.1575 449.716 51.9171 446.758 51.9171 444.795 51.9171 442.579 52.4809 441.989 55.4194L441.989 65.6277 440.775 65.6277 440.775 51.0814 441.989 51.0814 441.989 53.5887C442.499 51.539 444.841 50.816 446.891 50.816 450.552 50.816 451.633 52.5672 451.633 55.4459Z" fill="#006FBF" fill-rule="nonzero" fill-opacity="1" transform="matrix(1.00214 0 0 1 57 44.0133)"/><path d="M455.726 58.3578C455.726 52.6733 457.504 50.816 461.921 50.816 466.339 50.816 468.17 52.6733 468.17 58.3578 468.17 64.0424 466.339 65.8997 461.921 65.8997 457.504 65.8997 455.726 64.0424 455.726 58.3578ZM466.903 58.3578C466.903 53.5621 465.742 51.9171 461.921 51.9171 458.094 51.9171 456.993 53.5621 456.993 58.3578 456.993 63.1536 458.1 64.7986 461.921 64.7986 465.775 64.7919 466.903 63.1536 466.903 58.3578Z" fill="#006FBF" fill-rule="nonzero" fill-opacity="1" transform="matrix(1.00214 0 0 1 57 44.0133)"/><path d="M469.682 51.0814 470.949 51.0814 475.877 64.3077 476.036 64.3077 480.885 51.0814 482.152 51.0814 476.653 65.6277 475.227 65.6277 469.682 51.0814Z" fill="#006FBF" fill-rule="nonzero" fill-opacity="1" transform="matrix(1.00214 0 0 1 57 44.0133)"/><path d="M494.708 55.3663 494.708 65.6277 493.687 65.6277 493.501 63.0408C492.639 64.8715 490.404 65.893 487.79 65.893 484.314 65.893 482.888 64.3608 482.888 61.6611 482.888 57.9466 485.422 57.1374 488.599 57.1374L493.501 57.1374 493.501 55.5454C493.501 53.257 492.745 51.937 489.435 51.937 488.493 51.937 487.279 52.0432 486.178 52.2886L486.178 51.1013C487.253 50.9155 488.467 50.8028 489.521 50.8028 493.873 50.816 494.708 52.806 494.708 55.3663ZM493.495 61.3759 493.495 58.2252 488.752 58.2252C485.76 58.2252 484.089 58.7625 484.089 61.6744 484.089 63.7771 485.356 64.772 487.75 64.772 490.609 64.7654 492.765 63.5847 493.495 61.3759Z" fill="#006FBF" fill-rule="nonzero" fill-opacity="1" transform="matrix(1.00214 0 0 1 57 44.0133)"/><path d="M505.268 64.5001 505.268 65.6012C504.705 65.7073 504.001 65.7869 503.385 65.7869 500.718 65.7869 499.75 65.1103 499.75 61.2897L499.75 52.1891 497.408 52.1891 497.408 51.0814 499.75 51.0814 499.75 47.6322 500.963 47.6322 500.963 51.0814 504.976 51.0814 504.976 52.1891 500.963 52.1891 500.963 61.3494C500.963 63.9628 501.474 64.6924 503.358 64.6924 504.108 64.6858 504.645 64.6327 505.268 64.5001Z" fill="#006FBF" fill-rule="nonzero" fill-opacity="1" transform="matrix(1.00214 0 0 1 57 44.0133)"/><path d="M507.742 46.9622C507.742 46.1795 507.928 46.0734 508.578 46.0734 509.169 46.0734 509.387 46.1795 509.387 46.9622 509.387 47.7449 509.175 47.8511 508.578 47.8511 507.935 47.8511 507.742 47.7449 507.742 46.9622ZM507.961 51.0814 509.175 51.0814 509.175 65.6277 507.961 65.6277 507.961 51.0814Z" fill="#006FBF" fill-rule="nonzero" fill-opacity="1" transform="matrix(1.00214 0 0 1 57 44.0133)"/><path d="M513.454 58.3578C513.454 52.6733 515.231 50.816 519.649 50.816 524.066 50.816 525.897 52.6733 525.897 58.3578 525.897 64.0424 524.066 65.8997 519.649 65.8997 515.231 65.8997 513.454 64.0424 513.454 58.3578ZM524.637 58.3578C524.637 53.5621 523.476 51.9171 519.655 51.9171 515.828 51.9171 514.727 53.5621 514.727 58.3578 514.727 63.1536 515.835 64.7986 519.655 64.7986 523.503 64.7919 524.637 63.1536 524.637 58.3578Z" fill="#006FBF" fill-rule="nonzero" fill-opacity="1" transform="matrix(1.00214 0 0 1 57 44.0133)"/><path d="M540.987 55.4459 540.987 65.6277 539.774 65.6277 539.774 56.2021C539.774 53.1575 539.07 51.9171 536.112 51.9171 534.149 51.9171 531.94 52.4809 531.343 55.4194L531.343 65.6277 530.129 65.6277 530.129 51.0814 531.343 51.0814 531.343 53.5887C531.854 51.539 534.195 50.816 536.245 50.816 539.906 50.816 540.987 52.5672 540.987 55.4459Z" fill="#006FBF" fill-rule="nonzero" fill-opacity="1" transform="matrix(1.00214 0 0 1 57 44.0133)"/></g></g></g></g></g></svg>