<?xml version="1.0" encoding="UTF-8"?>
<svg id="Layer_1" data-name="Layer 1" xmlns="http://www.w3.org/2000/svg" viewBox="0 0 624.15 581.57">
  <defs>
    <style>
      .cls-1 {
        fill: #2e2d29;
      }

      .cls-2 {
        fill: #8c1515;
      }
    </style>
  </defs>
  <g>
    <path d="M28.2,451.77c-3.73,0-7.13-.71-10.22-2.12-3.09-1.41-5.8-3.31-8.14-5.71l3.75-4.31c1.86,1.97,4.08,3.51,6.67,4.63,2.58,1.12,5.26,1.68,8.02,1.68,3.46,0,6.15-.78,8.06-2.36,1.92-1.57,2.87-3.63,2.87-6.19,0-1.81-.39-3.25-1.16-4.31-.77-1.06-1.81-1.97-3.11-2.71-1.3-.74-2.78-1.49-4.43-2.24l-7.5-3.27c-1.7-.74-3.37-1.68-4.99-2.79-1.62-1.12-2.97-2.54-4.03-4.27-1.07-1.73-1.6-3.87-1.6-6.43s.7-5.04,2.12-7.15c1.41-2.1,3.35-3.75,5.83-4.95,2.47-1.2,5.31-1.8,8.5-1.8s6.12.59,8.78,1.76c2.66,1.17,4.9,2.69,6.71,4.55l-3.59,4.31c-1.65-1.44-3.46-2.59-5.43-3.47-1.97-.88-4.13-1.32-6.47-1.32-2.93,0-5.28.69-7.07,2.08-1.78,1.38-2.67,3.25-2.67,5.59,0,1.65.43,3.01,1.28,4.07.85,1.07,1.96,1.94,3.31,2.63,1.36.69,2.73,1.36,4.11,2l7.42,3.19c2.08.91,3.92,1.94,5.55,3.11,1.62,1.17,2.9,2.63,3.83,4.39.93,1.76,1.4,3.91,1.4,6.47,0,2.77-.71,5.28-2.12,7.54-1.41,2.26-3.46,4.06-6.15,5.39-2.69,1.33-5.87,2-9.54,2Z"/>
    <path d="M67,451.77c-4.1,0-7.09-1.29-8.98-3.87-1.89-2.58-2.83-6.35-2.83-11.3v-24.59h6.55v23.71c0,3.62.57,6.24,1.72,7.86,1.14,1.62,2.99,2.44,5.55,2.44,1.97,0,3.74-.52,5.31-1.56,1.57-1.04,3.29-2.67,5.15-4.91v-27.54h6.55v38.8h-5.43l-.56-6.07h-.24c-1.76,2.13-3.66,3.83-5.71,5.11-2.05,1.28-4.4,1.92-7.07,1.92Z"/>
    <path d="M109.23,451.77c-2.82,0-5.5-.49-8.02-1.48-2.53-.98-4.67-2.36-6.43-4.11l3.03-3.83c1.7,1.38,3.47,2.45,5.31,3.19,1.84.75,3.95,1.12,6.35,1.12,2.55,0,4.47-.6,5.75-1.8s1.92-2.62,1.92-4.27c0-1.33-.44-2.43-1.32-3.31s-1.97-1.62-3.27-2.24c-1.3-.61-2.7-1.18-4.19-1.72-1.92-.69-3.75-1.5-5.51-2.43-1.76-.93-3.18-2.1-4.27-3.51-1.09-1.41-1.64-3.18-1.64-5.31,0-3.14,1.18-5.76,3.55-7.86,2.37-2.1,5.65-3.15,9.86-3.15,2.39,0,4.63.41,6.71,1.24,2.08.83,3.86,1.88,5.35,3.15l-3.03,3.75c-1.38-.96-2.79-1.7-4.23-2.24-1.44-.53-3.03-.8-4.79-.8-2.45,0-4.25.56-5.39,1.68-1.15,1.12-1.72,2.42-1.72,3.91,0,1.17.35,2.14,1.04,2.91.69.77,1.66,1.45,2.91,2.04,1.25.59,2.67,1.15,4.27,1.68,2.02.75,3.95,1.58,5.79,2.51,1.84.93,3.33,2.13,4.47,3.59,1.14,1.46,1.72,3.37,1.72,5.71,0,2.13-.55,4.06-1.64,5.79-1.09,1.73-2.69,3.13-4.79,4.19-2.1,1.06-4.7,1.6-7.78,1.6Z"/>
    <path d="M143.16,451.54c-4.1,0-6.97-1.2-8.62-3.59-1.65-2.39-2.47-5.51-2.47-9.34v-21.24h-5.75v-4.95l6.07-.4.8-12.45h5.51v12.45h10.54v5.35h-10.54v21.32c0,2.34.44,4.18,1.32,5.51.88,1.33,2.43,2,4.67,2,.69,0,1.41-.07,2.16-.2.74-.13,1.49-.39,2.24-.76l1.44,4.63c-1.01.48-2.16.88-3.43,1.2-1.28.32-2.58.48-3.91.48Z"/>
    <path d="M165.2,451.77c-2.13,0-4.06-.44-5.79-1.32-1.73-.88-3.1-2.13-4.11-3.75-1.01-1.62-1.52-3.61-1.52-5.95,0-4.36,1.92-7.66,5.75-9.9s9.9-3.8,18.2-4.71c-.05-1.6-.31-3.14-.76-4.63-.45-1.49-1.26-2.69-2.43-3.59-1.17-.9-2.79-1.36-4.87-1.36-2.24,0-4.34.41-6.31,1.24-1.97.83-3.73,1.74-5.27,2.75l-2.55-4.47c1.17-.8,2.55-1.58,4.15-2.36,1.6-.77,3.33-1.41,5.19-1.92,1.86-.51,3.83-.76,5.91-.76,3.14,0,5.71.65,7.7,1.96,2,1.3,3.46,3.15,4.39,5.55.93,2.39,1.4,5.22,1.4,8.46v23.79h-5.43l-.56-4.63h-.24c-1.86,1.54-3.86,2.86-5.99,3.95-2.13,1.09-4.42,1.64-6.87,1.64ZM167.03,446.35c1.92,0,3.71-.43,5.39-1.28,1.68-.85,3.45-2.1,5.31-3.75v-10.46c-4.36.53-7.81,1.21-10.34,2.04-2.53.83-4.35,1.85-5.47,3.07-1.12,1.23-1.68,2.69-1.68,4.39,0,2.13.66,3.66,2,4.59,1.33.93,2.93,1.4,4.79,1.4Z"/>
    <path d="M199.76,404.03c-1.28,0-2.33-.4-3.15-1.2-.83-.8-1.24-1.84-1.24-3.11s.41-2.32,1.24-3.11c.82-.8,1.88-1.2,3.15-1.2s2.33.4,3.15,1.2c.82.8,1.24,1.84,1.24,3.11s-.41,2.32-1.24,3.11c-.83.8-1.88,1.2-3.15,1.2ZM196.49,450.82v-38.8h6.55v38.8h-6.55Z"/>
    <path d="M216.13,450.82v-38.8h5.43l.56,5.59h.24c1.86-1.86,3.83-3.42,5.91-4.67,2.08-1.25,4.44-1.88,7.11-1.88,4.1,0,7.09,1.29,8.98,3.87,1.89,2.58,2.83,6.35,2.83,11.3v24.59h-6.55v-23.71c0-3.67-.57-6.32-1.72-7.94-1.15-1.62-3.02-2.43-5.63-2.43-1.97,0-3.74.51-5.31,1.52-1.57,1.01-3.34,2.5-5.31,4.47v28.1h-6.55Z"/>
    <path d="M268.74,451.77c-2.13,0-4.06-.44-5.79-1.32-1.73-.88-3.1-2.13-4.11-3.75-1.01-1.62-1.52-3.61-1.52-5.95,0-4.36,1.92-7.66,5.75-9.9s9.9-3.8,18.2-4.71c-.05-1.6-.31-3.14-.76-4.63-.45-1.49-1.26-2.69-2.43-3.59-1.17-.9-2.79-1.36-4.87-1.36-2.24,0-4.34.41-6.31,1.24-1.97.83-3.73,1.74-5.27,2.75l-2.55-4.47c1.17-.8,2.55-1.58,4.15-2.36,1.6-.77,3.33-1.41,5.19-1.92,1.86-.51,3.83-.76,5.91-.76,3.14,0,5.71.65,7.7,1.96,2,1.3,3.46,3.15,4.39,5.55.93,2.39,1.4,5.22,1.4,8.46v23.79h-5.43l-.56-4.63h-.24c-1.86,1.54-3.86,2.86-5.99,3.95-2.13,1.09-4.42,1.64-6.87,1.64ZM270.58,446.35c1.92,0,3.71-.43,5.39-1.28,1.68-.85,3.45-2.1,5.31-3.75v-10.46c-4.36.53-7.81,1.21-10.34,2.04-2.53.83-4.35,1.85-5.47,3.07-1.12,1.23-1.68,2.69-1.68,4.39,0,2.13.66,3.66,2,4.59,1.33.93,2.93,1.4,4.79,1.4Z"/>
    <path d="M317.2,451.77c-1.81,0-3.67-.44-5.59-1.32-1.92-.88-3.75-2.09-5.51-3.63h-.24l-.56,3.99h-5.27v-56.84h6.55v15.49l-.16,7.03c1.76-1.54,3.68-2.83,5.79-3.87,2.1-1.04,4.22-1.56,6.35-1.56,3.35,0,6.17.81,8.46,2.43,2.29,1.62,4.02,3.91,5.19,6.87,1.17,2.95,1.76,6.43,1.76,10.42,0,4.42-.79,8.2-2.36,11.34-1.57,3.14-3.63,5.54-6.19,7.19-2.55,1.65-5.3,2.47-8.22,2.47ZM316.08,446.27c2.13,0,4.03-.61,5.71-1.84,1.68-1.22,2.99-2.99,3.95-5.31.96-2.32,1.44-5.07,1.44-8.26,0-2.82-.35-5.31-1.04-7.46-.69-2.16-1.78-3.83-3.27-5.03-1.49-1.2-3.46-1.8-5.91-1.8-1.6,0-3.26.44-4.99,1.32-1.73.88-3.53,2.2-5.39,3.95v20.36c1.7,1.49,3.39,2.54,5.07,3.15,1.68.61,3.15.92,4.43.92Z"/>
    <path d="M347.45,404.03c-1.28,0-2.33-.4-3.15-1.2-.83-.8-1.24-1.84-1.24-3.11s.41-2.32,1.24-3.11c.82-.8,1.88-1.2,3.15-1.2s2.33.4,3.15,1.2c.82.8,1.24,1.84,1.24,3.11s-.41,2.32-1.24,3.11c-.83.8-1.88,1.2-3.15,1.2ZM344.18,450.82v-38.8h6.55v38.8h-6.55Z"/>
    <path d="M370.76,451.54c-1.65,0-2.98-.33-3.99-1-1.01-.66-1.76-1.65-2.24-2.95-.48-1.3-.72-2.89-.72-4.75v-48.86h6.55v49.34c0,1.07.19,1.8.56,2.2.37.4.82.6,1.36.6.21,0,.41-.01.6-.04.19-.03.44-.07.76-.12l.96,4.95c-.48.16-1.03.31-1.64.44-.61.13-1.34.2-2.2.2Z"/>
    <path d="M387.45,404.03c-1.28,0-2.33-.4-3.15-1.2-.83-.8-1.24-1.84-1.24-3.11s.41-2.32,1.24-3.11c.82-.8,1.88-1.2,3.15-1.2s2.33.4,3.15,1.2c.82.8,1.24,1.84,1.24,3.11s-.41,2.32-1.24,3.11c-.83.8-1.88,1.2-3.15,1.2ZM384.18,450.82v-38.8h6.55v38.8h-6.55Z"/>
    <path d="M416.03,451.54c-4.1,0-6.97-1.2-8.62-3.59-1.65-2.39-2.47-5.51-2.47-9.34v-21.24h-5.75v-4.95l6.07-.4.8-12.45h5.51v12.45h10.54v5.35h-10.54v21.32c0,2.34.44,4.18,1.32,5.51.88,1.33,2.43,2,4.67,2,.69,0,1.41-.07,2.16-.2.74-.13,1.49-.39,2.24-.76l1.44,4.63c-1.01.48-2.16.88-3.43,1.2-1.28.32-2.58.48-3.91.48Z"/>
    <path d="M431.44,467.5c-.85,0-1.66-.08-2.44-.24-.77-.16-1.48-.35-2.12-.56l1.44-5.11c.48.16.96.28,1.44.36.48.08.93.12,1.36.12,2.24,0,4.06-.79,5.47-2.36,1.41-1.57,2.51-3.55,3.31-5.95l.88-2.87-15.57-38.88h6.79l7.9,21.48c.64,1.65,1.28,3.43,1.92,5.35.64,1.92,1.25,3.78,1.84,5.59h.32c.59-1.81,1.16-3.66,1.72-5.55.56-1.89,1.08-3.68,1.56-5.39l6.95-21.48h6.39l-14.61,41.99c-.91,2.55-2,4.86-3.27,6.91-1.28,2.05-2.82,3.66-4.63,4.83-1.81,1.17-4.02,1.76-6.63,1.76Z"/>
    <path d="M8.06,530.15l17.72-52.37h7.5l17.72,52.37h-7.03l-9.18-29.3c-.96-2.93-1.86-5.84-2.71-8.74-.85-2.9-1.7-5.87-2.55-8.9h-.32c-.8,3.03-1.62,6-2.47,8.9-.85,2.9-1.76,5.82-2.71,8.74l-9.26,29.3h-6.71ZM17.32,514.19v-5.27h24.19v5.27h-24.19Z"/>
    <path d="M73.13,531.11c-3.46,0-6.57-.8-9.34-2.39-2.77-1.6-4.95-3.91-6.55-6.95s-2.39-6.68-2.39-10.94.86-8.06,2.59-11.1c1.73-3.03,4.02-5.35,6.87-6.95,2.85-1.6,5.92-2.39,9.22-2.39,2.55,0,4.75.43,6.59,1.28,1.84.85,3.42,1.94,4.75,3.27l-3.27,4.07c-.96-.96-2.09-1.72-3.39-2.28-1.3-.56-2.78-.84-4.43-.84-2.29,0-4.35.63-6.19,1.88-1.84,1.25-3.29,2.99-4.35,5.23-1.07,2.24-1.6,4.84-1.6,7.82s.51,5.51,1.52,7.74c1.01,2.24,2.42,3.98,4.23,5.23,1.81,1.25,3.91,1.88,6.31,1.88,1.81,0,3.49-.35,5.03-1.04,1.54-.69,2.87-1.57,3.99-2.63l2.87,3.99c-1.65,1.54-3.51,2.78-5.59,3.71-2.08.93-4.36,1.4-6.87,1.4Z"/>
    <path d="M107.85,531.11c-3.46,0-6.57-.8-9.34-2.39-2.77-1.6-4.95-3.91-6.55-6.95s-2.39-6.68-2.39-10.94.86-8.06,2.59-11.1c1.73-3.03,4.02-5.35,6.87-6.95,2.85-1.6,5.92-2.39,9.22-2.39,2.55,0,4.75.43,6.59,1.28,1.84.85,3.42,1.94,4.75,3.27l-3.27,4.07c-.96-.96-2.09-1.72-3.39-2.28-1.3-.56-2.78-.84-4.43-.84-2.29,0-4.35.63-6.19,1.88-1.84,1.25-3.29,2.99-4.35,5.23-1.07,2.24-1.6,4.84-1.6,7.82s.51,5.51,1.52,7.74c1.01,2.24,2.42,3.98,4.23,5.23,1.81,1.25,3.91,1.88,6.31,1.88,1.81,0,3.49-.35,5.03-1.04,1.54-.69,2.87-1.57,3.99-2.63l2.87,3.99c-1.65,1.54-3.51,2.78-5.59,3.71-2.08.93-4.36,1.4-6.87,1.4Z"/>
    <path d="M142.9,531.11c-3.46,0-6.61-.81-9.46-2.43-2.85-1.62-5.1-3.94-6.75-6.95-1.65-3.01-2.47-6.67-2.47-10.98s.85-7.82,2.55-10.86c1.7-3.03,3.88-5.38,6.55-7.03,2.66-1.65,5.48-2.47,8.46-2.47,3.3,0,6.11.76,8.42,2.28s4.06,3.63,5.23,6.35c1.17,2.71,1.76,5.91,1.76,9.58,0,.69-.01,1.36-.04,2-.03.64-.12,1.28-.28,1.92h-27.94v-5.19h22.35c0-3.72-.81-6.59-2.43-8.58-1.62-2-3.95-2.99-6.99-2.99-1.76,0-3.49.49-5.19,1.48-1.7.99-3.1,2.57-4.19,4.75-1.09,2.18-1.64,5.08-1.64,8.7,0,3.3.57,6.07,1.72,8.3,1.14,2.24,2.7,3.93,4.67,5.07,1.97,1.15,4.12,1.72,6.47,1.72,1.86,0,3.6-.27,5.23-.8,1.62-.53,3.1-1.25,4.43-2.16l2.39,4.31c-1.7,1.17-3.61,2.13-5.71,2.87-2.1.74-4.48,1.12-7.14,1.12Z"/>
    <path d="M173.72,530.87c-1.65,0-2.98-.33-3.99-1-1.01-.66-1.76-1.65-2.24-2.95-.48-1.3-.72-2.89-.72-4.75v-48.86h6.55v49.34c0,1.07.19,1.8.56,2.2.37.4.82.6,1.36.6.21,0,.41-.01.6-.04.19-.03.44-.07.76-.12l.96,4.95c-.48.16-1.03.31-1.64.44-.61.13-1.34.2-2.2.2Z"/>
    <path d="M202.85,531.11c-3.46,0-6.61-.81-9.46-2.43-2.85-1.62-5.1-3.94-6.75-6.95-1.65-3.01-2.47-6.67-2.47-10.98s.85-7.82,2.55-10.86c1.7-3.03,3.88-5.38,6.55-7.03,2.66-1.65,5.48-2.47,8.46-2.47,3.3,0,6.11.76,8.42,2.28s4.06,3.63,5.23,6.35c1.17,2.71,1.76,5.91,1.76,9.58,0,.69-.01,1.36-.04,2-.03.64-.12,1.28-.28,1.92h-27.94v-5.19h22.35c0-3.72-.81-6.59-2.43-8.58-1.62-2-3.95-2.99-6.99-2.99-1.76,0-3.49.49-5.19,1.48-1.7.99-3.1,2.57-4.19,4.75-1.09,2.18-1.64,5.08-1.64,8.7,0,3.3.57,6.07,1.72,8.3,1.14,2.24,2.7,3.93,4.67,5.07,1.97,1.15,4.12,1.72,6.47,1.72,1.86,0,3.6-.27,5.23-.8,1.62-.53,3.1-1.25,4.43-2.16l2.39,4.31c-1.7,1.17-3.61,2.13-5.71,2.87-2.1.74-4.48,1.12-7.14,1.12Z"/>
    <path d="M226.72,530.15v-38.8h5.43l.56,7.03h.24c1.28-2.45,2.87-4.39,4.79-5.83,1.92-1.44,3.99-2.16,6.23-2.16.85,0,1.6.05,2.24.16.64.11,1.28.32,1.92.64l-1.44,5.59c-.59-.16-1.13-.28-1.64-.36-.51-.08-1.16-.12-1.96-.12-1.65,0-3.37.67-5.15,2-1.78,1.33-3.34,3.65-4.67,6.95v24.91h-6.55Z"/>
    <path d="M261.45,531.11c-2.13,0-4.06-.44-5.79-1.32-1.73-.88-3.1-2.13-4.11-3.75-1.01-1.62-1.52-3.61-1.52-5.95,0-4.36,1.92-7.66,5.75-9.9s9.9-3.8,18.2-4.71c-.05-1.6-.31-3.14-.76-4.63-.45-1.49-1.26-2.69-2.43-3.59-1.17-.9-2.79-1.36-4.87-1.36-2.24,0-4.34.41-6.31,1.24-1.97.83-3.73,1.74-5.27,2.75l-2.55-4.47c1.17-.8,2.55-1.58,4.15-2.36,1.6-.77,3.33-1.41,5.19-1.92,1.86-.51,3.83-.76,5.91-.76,3.14,0,5.71.65,7.7,1.96,2,1.3,3.46,3.15,4.39,5.55.93,2.39,1.4,5.22,1.4,8.46v23.79h-5.43l-.56-4.63h-.24c-1.86,1.54-3.86,2.86-5.99,3.95-2.13,1.09-4.42,1.64-6.87,1.64ZM263.29,525.68c1.92,0,3.71-.43,5.39-1.28,1.68-.85,3.45-2.1,5.31-3.75v-10.46c-4.36.53-7.81,1.21-10.34,2.04-2.53.83-4.35,1.85-5.47,3.07-1.12,1.23-1.68,2.69-1.68,4.39,0,2.13.66,3.66,2,4.59,1.33.93,2.93,1.4,4.79,1.4Z"/>
    <path d="M303.84,530.87c-4.1,0-6.97-1.2-8.62-3.59-1.65-2.39-2.47-5.51-2.47-9.34v-21.24h-5.75v-4.95l6.07-.4.8-12.45h5.51v12.45h10.54v5.35h-10.54v21.32c0,2.34.44,4.18,1.32,5.51.88,1.33,2.43,2,4.67,2,.69,0,1.41-.07,2.16-.2.74-.13,1.49-.39,2.24-.76l1.44,4.63c-1.01.48-2.16.88-3.43,1.2-1.28.32-2.58.48-3.91.48Z"/>
    <path d="M332.58,531.11c-3.14,0-6.08-.8-8.82-2.39-2.74-1.6-4.95-3.91-6.63-6.95s-2.51-6.68-2.51-10.94.84-8.06,2.51-11.1,3.88-5.35,6.63-6.95c2.74-1.6,5.68-2.39,8.82-2.39s6.15.8,8.86,2.39c2.71,1.6,4.91,3.91,6.59,6.95,1.68,3.03,2.51,6.73,2.51,11.1s-.84,7.9-2.51,10.94c-1.68,3.03-3.87,5.35-6.59,6.95-2.71,1.6-5.67,2.39-8.86,2.39ZM332.58,525.68c2.24,0,4.2-.62,5.91-1.88,1.7-1.25,3.01-2.99,3.91-5.23.9-2.24,1.36-4.82,1.36-7.74s-.45-5.6-1.36-7.86c-.91-2.26-2.21-4.02-3.91-5.27-1.7-1.25-3.67-1.88-5.91-1.88s-4.19.63-5.87,1.88c-1.68,1.25-2.98,3.01-3.91,5.27-.93,2.26-1.4,4.88-1.4,7.86s.47,5.51,1.4,7.74c.93,2.24,2.24,3.98,3.91,5.23,1.68,1.25,3.63,1.88,5.87,1.88Z"/>
    <path d="M360.76,530.15v-38.8h5.43l.56,7.03h.24c1.28-2.45,2.87-4.39,4.79-5.83,1.92-1.44,3.99-2.16,6.23-2.16.85,0,1.6.05,2.24.16.64.11,1.28.32,1.92.64l-1.44,5.59c-.59-.16-1.13-.28-1.64-.36-.51-.08-1.16-.12-1.96-.12-1.65,0-3.37.67-5.15,2-1.78,1.33-3.34,3.65-4.67,6.95v24.91h-6.55Z"/>
  </g>
  <g>
    <g>
      <path class="cls-2" d="M131.19,96.48c-4.27,1.11-8.41,2.7-12.38,4.67-3.24,1.7-5.18,5.15-4.97,8.81-.29,2.3.54,4.58,2.2,6.19,1.66,1.61,3.97,2.36,6.24,2.02,3.16.08,6.27-.83,8.91-2.59v-19.09ZM117.72,126.01c-15.28,0-16.42-11.53-16.42-14.92-.26-6.87,4.2-13,10.8-14.92,9.95-3.68,12.17-4.07,19.09-6.27v-1.73c.21-2.1-.05-4.25-.7-6.27-1.56-4.24-5.78-6.89-10.28-6.44-4.38-.11-8.47,2.12-10.75,5.85l-.6,1.14-2.82-1.68.29-.83c3-7.72,10.72-12.53,18.96-11.84,6.24-.72,12.38,1.97,16.11,7.05,2.1,4.56,2.98,9.58,2.54,14.58v21.73c0,3.97.6,7.05,3.91,7.05.67.05,1.32-.16,1.84-.6l.91-.72,1.84,2.07-.6.8c-2.43,3.81-6.58,6.17-11.08,6.27-3.86.36-7.46-1.99-8.65-5.67-3.68,3.81-8.75,5.91-14.04,5.78l-.34-.41ZM117.72,126.01"/>
      <path class="cls-2" d="M24.64,125.93c-6.29.11-12.56-.8-18.57-2.69h-.83v-16.22h3.26v1.14c.05,2.49.96,4.89,2.54,6.82,3.63,3.03,8.26,4.58,12.98,4.32,10.75,0,15.72-4.06,15.72-12.77,0-7.46-4.61-10.54-10.98-14.92l-1.01-.75-6.71-4.48c-9.35-6.17-14.12-11.14-14.12-21.03,0-4.97,1.84-20.69,25.41-20.69,5.83,0,11.66.44,17.4,1.35h1.03v16.42h-3.08v-1.11c0-2.51-.98-4.92-2.72-6.76-3.67-2.54-8.13-3.73-12.58-3.32-12.49,0-13.94,6.4-13.94,11.19,0,6.66,3.39,8.89,10.8,13.78l8.55,5.64c7.28,4.97,14.09,9.4,14.09,21.45,0,20.33-19.01,22.58-27.17,22.58l-.08.05ZM24.64,125.93"/>
      <path class="cls-2" d="M80.43,126.27c-8.71,0-13.49-3.14-15.62-9.95-.7-3.83-.93-7.72-.7-11.58v-28.46h-7.41v-2.18l.75-.3c2.25-.83,4.38-2.05,6.27-3.57,3.73-3.22,6.87-7.07,9.25-11.4l1.24-2.13h2.44v12.64h19.14v6.94h-19.14v29.55c0,8.81,1.63,13.83,9.95,13.83,2.38,0,4.73-.54,6.92-1.56l1.13-.6.99,2.28-.49.54c-3.81,4.17-9.3,6.37-14.92,5.93h.21ZM80.43,126.27"/>
      <path class="cls-2" d="M156.91,125.52v-2.38h1.09c1.89-.13,3.68-.96,4.97-2.33,1.74-1.94,1.84-6.7,1.84-16.26v-16.21c.49-3.83.13-7.72-1.09-11.4-1.32-1.29-3.13-2-4.97-1.94h-1.55v-3.21h2.15c3.34-.11,6.66-.46,9.95-1.11,2.1-.29,4.12-.96,5.96-1.97l.6-.31,1.13.7v4.32c4.77-3.52,10.52-5.44,16.42-5.46,9.95,0,16.76,4.71,18.64,13.31.55,3.29.78,6.63.76,9.95v16.42c0,9.25.34,11.89,2.07,13.47,1.27.99,2.8,1.53,4.38,1.61h1.11v2.59h-2.79c-4.02,0-7.51-.36-11.14-.36s-7.74,0-12.77.44h-1.29v-2.23h.98c1.71-.13,3.37-.78,4.69-1.89,1.84-1.84,1.89-6.17,2.02-9.95v-11.89c.08-4.28-.08-8.55-.44-12.82.05-3.08-1.25-6.01-3.55-8.06-2.27-2.02-5.33-2.98-8.39-2.59-3.65-.11-7.28.7-10.54,2.33v29.55c0,9.25.41,11.89,2.15,13.47,1.25.95,2.75,1.53,4.32,1.58h1.09v2.59h-2.98c-3.89,0-7.27-.34-10.8-.34s-7.9,0-12.92.44h-1.24l.15-.05ZM156.91,125.52"/>
      <path class="cls-2" d="M226.97,125.52v-2.69h1.09c1.89-.1,3.67-.96,4.97-2.33,1.73-1.94,1.78-6.66,1.78-16.22v-27.89h-7.25v-2.98l.76-.31c2.33-.88,4.53-2.04,6.55-3.47-.05-4.97.23-9.97.86-14.92,2.23-11.58,9.95-17.51,22.58-17.51,4.92-.08,9.74,1.45,13.73,4.32l.39.36v1.19l-5.57,7.74h-1.35l-.31-.7c-1.4-4.01-5.21-6.7-9.48-6.66-2.07-.05-4.09.68-5.67,2.05-2.43,2.43-2.85,6.06-2.85,13.23v10.83h12.54v6.97h-12.33v31.18c-.5,4.2-.05,8.44,1.24,12.49,1.55,2.38,6.32,2.53,7.77,2.53h1.14v2.98h-1.25c-6.16-.36-10.8-.44-14.09-.44-4.17,0-8.93,0-13.96.44h-1.3v-.21ZM226.97,125.52"/>
      <path class="cls-2" d="M292.32,74.32c-2.88-.16-5.7.75-7.95,2.51-4.54,3.78-6.76,10.69-6.76,20.51,0,3.76.68,22.66,14.51,22.66,2.87.13,5.7-.78,7.95-2.53,4.54-3.79,6.81-10.7,6.81-20.49,0-3.79-.72-22.66-14.55-22.66h0ZM291.62,126.48c-17.14,0-27.4-10.65-27.4-28.54,0-13.93,7.51-30.15,28.59-30.15,17.15,0,27.4,10.7,27.4,28.6,0,13.88-7.51,29.84-28.6,29.84v.26ZM291.62,126.48"/>
      <path class="cls-2" d="M325.62,125.52v-2.82h1.11c1.9-.13,3.65-.99,4.97-2.36,1.74-1.92,1.84-6.55,1.84-16.11v-15.9c.49-3.83.1-7.72-1.11-11.4-1.3-1.32-3.11-2.02-4.97-1.94h-1.53v-3.37h2.13c3.34-.07,6.68-.46,9.95-1.09,2.07-.3,4.09-.83,6.03-1.6l.64-.29.99.54v4.97c3.44-3.6,8.16-5.64,13.13-5.72,3.42-.15,6.79.96,9.46,3.14l.34.38v1.76l-4.97,8.7h-2.28l-.36-.57c-1.96-3.03-5.41-4.76-9.04-4.5-2.17-.08-4.32.54-6.11,1.78v28.29c-.46,4.17-.05,8.39,1.19,12.38,1.58,2.36,6.37,2.54,7.74,2.54h1.19v3.08h-1.25c-6.17-.34-10.77-.44-14.12-.44-4.17,0-8.88,0-13.9.44h-1.3l.23.1ZM325.62,125.52"/>
      <path class="cls-2" d="M401.02,74.65c-10.98,0-16.31,7.51-16.31,22.92,0,6.21,1.78,20.79,18.1,20.79h.49c3.14.05,6.22-.78,8.91-2.35v-37.63c-3.08-2.69-7.09-4.06-11.19-3.78v.05ZM413.95,126.32l-1.48-.49v-4.97c-4.56,3.37-10.05,5.2-15.72,5.26-15.41,0-25.35-10.69-25.35-27.3-.03-5.13.98-10.2,3.03-14.92,4.87-10.26,15.44-16.58,26.81-16.01,3.67,0,7.35.34,10.98,1.03v-11.94c.46-4.09.11-8.26-1.09-12.22-1.29-1.33-3.11-2.05-4.97-1.94h-1.45v-2.49h1.19c4.04-.31,8.06-.86,12.04-1.58,1.89-.26,3.76-.7,5.57-1.29h.54l.99.6v.54c-.39,4.63-.44,14.53-.44,21.94v45.79c-.44,4.2-.08,8.44,1.09,12.49,1.3,1.35,3.11,2.1,4.97,2.04h1.45v2.98h-1.19c-3.65.16-7.3.55-10.9,1.19-1.94.23-3.86.68-5.7,1.29h-.54.19ZM413.95,126.32"/>
    </g>
    <g>
      <path d="M7.72,228.94v-47.99h12.84c4.89,0,9.07.88,12.55,2.64,3.47,1.76,6.14,4.4,8,7.92,1.86,3.52,2.79,7.93,2.79,13.21s-.92,9.73-2.75,13.32c-1.84,3.6-4.47,6.31-7.89,8.15-3.43,1.83-7.51,2.75-12.26,2.75H7.72ZM16.24,222.05h3.74c3.23,0,5.98-.63,8.26-1.87,2.28-1.25,4-3.14,5.17-5.69,1.17-2.54,1.76-5.8,1.76-9.76s-.59-7.12-1.76-9.61c-1.17-2.5-2.9-4.33-5.17-5.5-2.28-1.17-5.03-1.76-8.26-1.76h-3.74v34.2Z"/>
      <path d="M72.23,229.82c-4.16,0-7.83-1.01-11.01-3.05-3.18-2.03-5.66-4.92-7.45-8.66-1.79-3.74-2.68-8.2-2.68-13.39s.89-9.61,2.68-13.28c1.78-3.67,4.27-6.48,7.45-8.44,3.18-1.95,6.85-2.94,11.01-2.94s7.9.98,11.08,2.94c3.18,1.95,5.66,4.77,7.45,8.44,1.78,3.67,2.68,8.1,2.68,13.28s-.89,9.65-2.68,13.39c-1.79,3.74-4.27,6.63-7.45,8.66-3.18,2.03-6.87,3.05-11.08,3.05ZM72.23,222.41c2.54,0,4.73-.72,6.57-2.17,1.83-1.44,3.27-3.5,4.29-6.16,1.03-2.67,1.54-5.79,1.54-9.36s-.51-6.64-1.54-9.21c-1.03-2.57-2.46-4.55-4.29-5.95-1.84-1.39-4.03-2.09-6.57-2.09s-4.67.7-6.53,2.09c-1.86,1.4-3.3,3.38-4.33,5.95-1.03,2.57-1.54,5.64-1.54,9.21s.51,6.69,1.54,9.36c1.03,2.67,2.47,4.72,4.33,6.16,1.86,1.45,4.04,2.17,6.53,2.17Z"/>
      <path d="M103.05,228.94v-47.99h28.91v7.19h-20.4v12.26h17.25v7.19h-17.25v14.16h21.14v7.19h-29.65Z"/>
      <path d="M142.53,228.94v-47.99h16.22c3.32,0,6.31.44,8.95,1.32,2.64.88,4.74,2.36,6.31,4.44,1.56,2.08,2.35,4.9,2.35,8.48s-.78,6.23-2.35,8.44c-1.57,2.2-3.67,3.84-6.31,4.92s-5.63,1.61-8.95,1.61h-7.71v18.79h-8.51ZM151.05,203.41h6.82c3.28,0,5.78-.69,7.52-2.06,1.74-1.37,2.61-3.42,2.61-6.16s-.87-4.66-2.61-5.76c-1.74-1.1-4.25-1.65-7.52-1.65h-6.82v15.63ZM168.73,228.94l-11.6-21.06,6.17-5.06,14.97,26.12h-9.54Z"/>
      <path d="M185.98,228.94v-47.99h16.22c3.32,0,6.31.44,8.95,1.32,2.64.88,4.74,2.36,6.31,4.44,1.56,2.08,2.35,4.9,2.35,8.48s-.78,6.23-2.35,8.44c-1.57,2.2-3.67,3.84-6.31,4.92s-5.63,1.61-8.95,1.61h-7.71v18.79h-8.51ZM194.49,203.41h6.82c3.28,0,5.78-.69,7.52-2.06,1.74-1.37,2.61-3.42,2.61-6.16s-.87-4.66-2.61-5.76c-1.74-1.1-4.25-1.65-7.52-1.65h-6.82v15.63ZM212.18,228.94l-11.6-21.06,6.17-5.06,14.97,26.12h-9.54Z"/>
      <path d="M258.12,229.82c-3.33,0-6.47-.61-9.43-1.83-2.96-1.22-5.59-2.96-7.89-5.21l4.62-5.58c1.71,1.66,3.7,2.95,5.98,3.86,2.28.9,4.56,1.36,6.86,1.36,2.74,0,4.82-.56,6.24-1.69,1.42-1.13,2.13-2.62,2.13-4.48,0-1.32-.32-2.38-.96-3.19-.64-.81-1.51-1.51-2.6-2.09-1.1-.59-2.39-1.17-3.85-1.76l-6.61-2.86c-1.57-.68-3.1-1.57-4.59-2.68-1.49-1.1-2.72-2.47-3.67-4.11-.96-1.64-1.43-3.63-1.43-5.98,0-2.55.7-4.83,2.09-6.86,1.39-2.03,3.3-3.65,5.73-4.85,2.42-1.19,5.2-1.8,8.33-1.8,2.89,0,5.62.53,8.18,1.58,2.57,1.05,4.76,2.48,6.57,4.29l-4.48,5.57c-1.57-1.27-3.21-2.26-4.92-2.97-1.72-.71-3.5-1.06-5.36-1.06-2.25,0-4.07.5-5.47,1.5-1.39,1.01-2.09,2.39-2.09,4.15,0,1.22.35,2.24,1.06,3.05.71.81,1.66,1.5,2.86,2.06s2.43,1.11,3.71,1.65l6.53,2.72c1.91.83,3.6,1.81,5.06,2.94,1.47,1.13,2.6,2.49,3.41,4.11.81,1.61,1.21,3.6,1.21,5.94,0,2.6-.69,4.97-2.06,7.12-1.37,2.16-3.34,3.88-5.91,5.17-2.57,1.3-5.66,1.95-9.28,1.95Z"/>
      <path d="M303.4,229.82c-4.06,0-7.74-.95-11.04-2.86-3.3-1.91-5.92-4.71-7.85-8.41-1.93-3.69-2.9-8.18-2.9-13.46,0-3.91.56-7.42,1.69-10.53,1.12-3.11,2.7-5.74,4.73-7.89,2.03-2.15,4.37-3.79,7.01-4.92,2.64-1.13,5.48-1.69,8.51-1.69s5.72.6,8.07,1.8c2.35,1.2,4.28,2.63,5.8,4.29l-4.55,5.21c-1.22-1.27-2.58-2.24-4.07-2.9-1.49-.66-3.17-.99-5.03-.99-2.54,0-4.83.71-6.86,2.13-2.03,1.42-3.63,3.43-4.81,6.02-1.17,2.59-1.76,5.68-1.76,9.25s.56,6.81,1.69,9.43c1.13,2.62,2.72,4.63,4.77,6.02,2.06,1.4,4.45,2.09,7.19,2.09,2.06,0,3.89-.41,5.5-1.25,1.61-.83,3.08-1.93,4.4-3.3l4.33,5.06c-1.96,2.25-4.16,3.96-6.61,5.14-2.45,1.17-5.19,1.76-8.22,1.76Z"/>
      <path d="M326.37,228.94v-47.99h8.51v19.3h19.45v-19.3h8.51v47.99h-8.51v-21.28h-19.45v21.28h-8.51Z"/>
      <path d="M393.66,229.82c-4.16,0-7.83-1.01-11.01-3.05-3.18-2.03-5.66-4.92-7.45-8.66-1.79-3.74-2.68-8.2-2.68-13.39s.89-9.61,2.68-13.28c1.78-3.67,4.27-6.48,7.45-8.44,3.18-1.95,6.85-2.94,11.01-2.94s7.9.98,11.08,2.94,5.66,4.77,7.45,8.44c1.78,3.67,2.68,8.1,2.68,13.28s-.89,9.65-2.68,13.39c-1.79,3.74-4.27,6.63-7.45,8.66-3.18,2.03-6.87,3.05-11.08,3.05ZM393.66,222.41c2.54,0,4.73-.72,6.57-2.17,1.83-1.44,3.27-3.5,4.29-6.16,1.03-2.67,1.54-5.79,1.54-9.36s-.51-6.64-1.54-9.21c-1.03-2.57-2.46-4.55-4.29-5.95-1.84-1.39-4.03-2.09-6.57-2.09s-4.67.7-6.53,2.09c-1.86,1.4-3.3,3.38-4.33,5.95-1.03,2.57-1.54,5.64-1.54,9.21s.51,6.69,1.54,9.36c1.03,2.67,2.47,4.72,4.33,6.16,1.86,1.45,4.04,2.17,6.53,2.17Z"/>
      <path d="M443.13,229.82c-4.16,0-7.83-1.01-11.01-3.05-3.18-2.03-5.66-4.92-7.45-8.66-1.79-3.74-2.68-8.2-2.68-13.39s.89-9.61,2.68-13.28c1.78-3.67,4.27-6.48,7.45-8.44,3.18-1.95,6.85-2.94,11.01-2.94s7.9.98,11.08,2.94,5.66,4.77,7.45,8.44c1.78,3.67,2.68,8.1,2.68,13.28s-.89,9.65-2.68,13.39c-1.79,3.74-4.27,6.63-7.45,8.66-3.18,2.03-6.87,3.05-11.08,3.05ZM443.13,222.41c2.54,0,4.73-.72,6.57-2.17,1.83-1.44,3.27-3.5,4.29-6.16,1.03-2.67,1.54-5.79,1.54-9.36s-.51-6.64-1.54-9.21c-1.03-2.57-2.46-4.55-4.29-5.95-1.84-1.39-4.03-2.09-6.57-2.09s-4.67.7-6.53,2.09c-1.86,1.4-3.3,3.38-4.33,5.95-1.03,2.57-1.54,5.64-1.54,9.21s.51,6.69,1.54,9.36c1.03,2.67,2.47,4.72,4.33,6.16,1.86,1.45,4.04,2.17,6.53,2.17Z"/>
      <path d="M473.95,228.94v-47.99h8.51v40.8h19.96v7.19h-28.47Z"/>
      <path d="M26.36,306.28c-4.16,0-7.83-1.01-11.01-3.05-3.18-2.03-5.66-4.92-7.45-8.66-1.79-3.74-2.68-8.2-2.68-13.39s.89-9.61,2.68-13.28c1.78-3.67,4.27-6.48,7.45-8.44,3.18-1.95,6.85-2.94,11.01-2.94s7.9.98,11.08,2.94c3.18,1.95,5.66,4.77,7.45,8.44,1.78,3.67,2.68,8.1,2.68,13.28s-.89,9.65-2.68,13.39c-1.79,3.74-4.27,6.63-7.45,8.66-3.18,2.03-6.87,3.05-11.08,3.05ZM26.36,298.87c2.54,0,4.73-.72,6.57-2.17,1.83-1.44,3.27-3.5,4.29-6.16s1.54-5.79,1.54-9.36-.51-6.64-1.54-9.21c-1.03-2.57-2.46-4.55-4.29-5.95-1.84-1.39-4.03-2.09-6.57-2.09s-4.67.7-6.53,2.09c-1.86,1.4-3.3,3.38-4.33,5.95-1.03,2.57-1.54,5.64-1.54,9.21s.51,6.69,1.54,9.36c1.03,2.67,2.47,4.72,4.33,6.16,1.86,1.45,4.04,2.17,6.53,2.17Z"/>
      <path d="M57.18,305.4v-47.99h28.99v7.19h-20.47v13.58h17.47v7.19h-17.47v20.03h-8.51Z"/>
      <path d="M123.31,306.28c-3.33,0-6.47-.61-9.43-1.83-2.96-1.22-5.59-2.96-7.89-5.21l4.62-5.58c1.71,1.66,3.7,2.95,5.98,3.86,2.28.9,4.56,1.36,6.86,1.36,2.74,0,4.82-.56,6.24-1.69,1.42-1.13,2.13-2.62,2.13-4.48,0-1.32-.32-2.38-.96-3.19-.64-.81-1.51-1.51-2.6-2.09-1.1-.59-2.39-1.17-3.85-1.76l-6.61-2.86c-1.57-.68-3.1-1.57-4.59-2.68-1.49-1.1-2.72-2.47-3.67-4.11-.96-1.64-1.43-3.63-1.43-5.98,0-2.55.7-4.83,2.09-6.86,1.39-2.03,3.3-3.65,5.73-4.85,2.42-1.19,5.2-1.8,8.33-1.8,2.89,0,5.62.53,8.18,1.58,2.57,1.05,4.76,2.48,6.57,4.29l-4.48,5.57c-1.57-1.27-3.21-2.26-4.92-2.97-1.72-.71-3.5-1.06-5.36-1.06-2.25,0-4.07.5-5.47,1.5-1.39,1.01-2.09,2.39-2.09,4.15,0,1.22.35,2.24,1.06,3.05.71.81,1.66,1.5,2.86,2.06s2.43,1.11,3.71,1.65l6.53,2.72c1.91.83,3.6,1.81,5.06,2.94,1.47,1.13,2.6,2.49,3.41,4.11s1.21,3.6,1.21,5.94c0,2.6-.69,4.97-2.06,7.12-1.37,2.16-3.34,3.88-5.91,5.17-2.57,1.3-5.66,1.95-9.28,1.95Z"/>
      <path d="M167.27,306.28c-2.79,0-5.3-.39-7.52-1.17-2.23-.78-4.14-2.03-5.73-3.75-1.59-1.71-2.81-3.93-3.67-6.67-.86-2.74-1.28-6.04-1.28-9.91v-27.37h8.51v28.03c0,3.38.4,6.05,1.21,8s1.95,3.35,3.41,4.18c1.47.83,3.15,1.25,5.06,1.25s3.68-.41,5.17-1.25c1.49-.83,2.67-2.23,3.52-4.18s1.29-4.63,1.29-8v-28.03h8.15v27.37c0,3.87-.42,7.17-1.25,9.91s-2.04,4.97-3.63,6.67c-1.59,1.71-3.5,2.96-5.72,3.75-2.23.78-4.73,1.17-7.52,1.17Z"/>
      <path d="M210.64,306.28c-3.33,0-6.47-.61-9.43-1.83-2.96-1.22-5.59-2.96-7.89-5.21l4.62-5.58c1.71,1.66,3.7,2.95,5.98,3.86,2.28.9,4.56,1.36,6.86,1.36,2.74,0,4.82-.56,6.24-1.69,1.42-1.13,2.13-2.62,2.13-4.48,0-1.32-.32-2.38-.96-3.19-.64-.81-1.51-1.51-2.6-2.09-1.1-.59-2.39-1.17-3.85-1.76l-6.61-2.86c-1.57-.68-3.1-1.57-4.59-2.68-1.49-1.1-2.72-2.47-3.67-4.11-.96-1.64-1.43-3.63-1.43-5.98,0-2.55.7-4.83,2.09-6.86,1.39-2.03,3.3-3.65,5.73-4.85,2.42-1.19,5.2-1.8,8.33-1.8,2.89,0,5.62.53,8.18,1.58,2.57,1.05,4.76,2.48,6.57,4.29l-4.48,5.57c-1.57-1.27-3.21-2.26-4.92-2.97-1.72-.71-3.5-1.06-5.36-1.06-2.25,0-4.07.5-5.47,1.5-1.39,1.01-2.09,2.39-2.09,4.15,0,1.22.35,2.24,1.06,3.05.71.81,1.66,1.5,2.86,2.06,1.2.56,2.43,1.11,3.71,1.65l6.53,2.72c1.91.83,3.6,1.81,5.06,2.94,1.47,1.13,2.6,2.49,3.41,4.11s1.21,3.6,1.21,5.94c0,2.6-.69,4.97-2.06,7.12-1.37,2.16-3.34,3.88-5.91,5.17-2.57,1.3-5.66,1.95-9.28,1.95Z"/>
      <path d="M244.84,305.4v-40.81h-13.87v-7.19h36.25v7.19h-13.87v40.81h-8.51Z"/>
      <path d="M266.05,305.4l15.63-47.99h9.98l15.63,47.99h-8.95l-7.34-25.54c-.78-2.55-1.53-5.16-2.24-7.85-.71-2.69-1.41-5.36-2.09-8h-.29c-.64,2.69-1.31,5.37-2.02,8.03-.71,2.67-1.46,5.27-2.24,7.82l-7.41,25.54h-8.66ZM275.29,292.41v-6.68h22.6v6.68h-22.6Z"/>
      <path d="M313.23,305.4v-47.99h8.51v47.99h-8.51Z"/>
      <path d="M333.93,305.4v-47.99h9.32l14.38,26.42c.88,1.61,1.73,3.35,2.53,5.21s1.58,3.74,2.31,5.65h.29c-.19-2.6-.41-5.3-.66-8.11-.25-2.81-.37-5.54-.37-8.18v-20.99h8.15v47.99h-9.32l-14.39-26.42c-.88-1.61-1.75-3.35-2.6-5.21-.86-1.86-1.65-3.74-2.39-5.65h-.29c.29,2.5.56,5.15.81,7.96s.37,5.59.37,8.33v20.99h-8.15Z"/>
      <path d="M375.91,305.4l15.63-47.99h9.98l15.63,47.99h-8.95l-7.34-25.54c-.78-2.55-1.53-5.16-2.24-7.85-.71-2.69-1.41-5.36-2.09-8h-.29c-.64,2.69-1.31,5.37-2.02,8.03-.71,2.67-1.46,5.27-2.24,7.82l-7.41,25.54h-8.66ZM385.15,292.41v-6.68h22.6v6.68h-22.6Z"/>
      <path d="M423.09,305.4v-47.99h15.34c3.32,0,6.27.38,8.84,1.14,2.57.76,4.6,1.99,6.09,3.71,1.49,1.71,2.24,4.03,2.24,6.97,0,2.45-.58,4.61-1.73,6.5-1.15,1.88-2.8,3.19-4.95,3.92v.29c2.84.59,5.08,1.78,6.72,3.56,1.64,1.79,2.46,4.27,2.46,7.45s-.79,6-2.38,8.15c-1.59,2.15-3.78,3.74-6.57,4.77-2.79,1.03-5.95,1.54-9.47,1.54h-16.58ZM431.61,277.22h6.09c3.33,0,5.75-.61,7.27-1.83,1.52-1.22,2.28-2.86,2.28-4.92,0-2.35-.78-4.01-2.35-4.99s-3.91-1.47-7.04-1.47h-6.24v13.21ZM431.61,298.8h7.19c3.52,0,6.24-.65,8.15-1.95,1.91-1.29,2.86-3.29,2.86-5.98,0-2.55-.93-4.39-2.79-5.54s-4.6-1.72-8.22-1.72h-7.19v15.19Z"/>
      <path d="M466.91,305.4v-47.99h8.51v47.99h-8.51Z"/>
      <path d="M487.6,305.4v-47.99h8.51v40.8h19.96v7.19h-28.47Z"/>
      <path d="M524.44,305.4v-47.99h8.51v47.99h-8.51Z"/>
      <path d="M554.82,305.4v-40.81h-13.87v-7.19h36.25v7.19h-13.87v40.81h-8.51Z"/>
      <path d="M592.03,305.4v-17.83l-14.39-30.16h9.1l5.21,12.25c.68,1.81,1.37,3.56,2.05,5.25.69,1.69,1.42,3.46,2.2,5.32h.29c.78-1.86,1.54-3.63,2.28-5.32s1.44-3.44,2.13-5.25l5.21-12.25h8.88l-14.46,30.16v17.83h-8.51Z"/>
    </g>
    <rect class="cls-1" x="2.75" y="347.52" width="605.76" height="2.15"/>
  </g>
</svg>